<svg width="22" height="20" viewBox="0 0 22 20" fill="none" xmlns="http://www.w3.org/2000/svg">
<path d="M15.0777 5.30973C14.8902 5.30973 14.728 5.23968 14.591 5.09956C14.4539 4.95944 14.3854 4.79351 14.3854 4.60177C14.3854 4.22566 14.4539 3.86431 14.591 3.5177C14.728 3.17109 14.9299 2.86504 15.1967 2.59956L16.0511 1.7146C16.3251 1.43437 16.4621 1.09882 16.4621 0.707965C16.4621 0.516224 16.5306 0.350295 16.6677 0.210177C16.8047 0.070059 16.9669 0 17.1544 0C17.3419 0 17.5041 0.070059 17.6411 0.210177C17.7781 0.350295 17.8466 0.516224 17.8466 0.707965C17.8466 1.08407 17.7781 1.44543 17.6411 1.79204C17.5041 2.13864 17.3022 2.44469 17.0354 2.71018L16.1809 3.59513C15.9069 3.87537 15.7699 4.21091 15.7699 4.60177C15.7699 4.79351 15.7014 4.95944 15.5644 5.09956C15.4274 5.23968 15.2652 5.30973 15.0777 5.30973ZM10.9243 5.30973C10.7368 5.30973 10.5746 5.23968 10.4376 5.09956C10.3006 4.95944 10.2321 4.79351 10.2321 4.60177C10.2321 4.22566 10.3006 3.86431 10.4376 3.5177C10.5746 3.17109 10.7765 2.86504 11.0433 2.59956L11.8977 1.7146C12.1717 1.43437 12.3088 1.09882 12.3088 0.707965C12.3088 0.516224 12.3773 0.350295 12.5143 0.210177C12.6513 0.070059 12.8135 0 13.001 0C13.1885 0 13.3507 0.070059 13.4877 0.210177C13.6247 0.350295 13.6932 0.516224 13.6932 0.707965C13.6932 1.08407 13.6247 1.44543 13.4877 1.79204C13.3507 2.13864 13.1488 2.44469 12.882 2.71018L12.0275 3.59513C11.7535 3.87537 11.6165 4.21091 11.6165 4.60177C11.6165 4.79351 11.548 4.95944 11.411 5.09956C11.274 5.23968 11.1118 5.30973 10.9243 5.30973ZM19.9233 7.25664C20.2117 7.25664 20.4821 7.31195 20.7345 7.42257C20.9869 7.53319 21.2068 7.68437 21.3943 7.87611C21.5818 8.06785 21.7296 8.29277 21.8378 8.55088C21.9459 8.809 22 9.08555 22 9.38053V13.6283C22 13.9233 21.9459 14.1999 21.8378 14.458C21.7296 14.7161 21.5818 14.941 21.3943 15.1327C21.2068 15.3245 20.9869 15.4757 20.7345 15.5863C20.4821 15.6969 20.2117 15.7522 19.9233 15.7522H19.3068C19.2924 15.8038 19.2815 15.8518 19.2743 15.896C19.2671 15.9403 19.2527 15.9845 19.2311 16.0288V16.4602C19.2311 16.9469 19.1409 17.4041 18.9607 17.8319C18.7804 18.2596 18.5316 18.6357 18.2144 18.9602C17.8971 19.2847 17.5293 19.5391 17.1111 19.7235C16.6929 19.9078 16.2458 20 15.7699 20H11.6165C11.0541 20 10.5349 19.8709 10.059 19.6128C9.58309 19.3547 9.1865 19.0118 8.86922 18.5841H3.46116C2.98525 18.5841 2.53818 18.4919 2.11996 18.3075C1.70174 18.1232 1.33399 17.8724 1.01672 17.5553C0.699443 17.2382 0.450672 16.8621 0.270403 16.427C0.0901344 15.9919 0 15.531 0 15.0442V14.3363H2.76893C2.76893 13.7537 2.87709 13.2043 3.09341 12.6881C3.30973 12.1718 3.60898 11.722 3.99115 11.3385C4.37332 10.955 4.81318 10.649 5.31072 10.4204C5.80826 10.1917 6.34546 10.0811 6.92232 10.0885C7.13864 10.0885 7.34776 10.1069 7.54966 10.1438C7.75156 10.1807 7.95346 10.2323 8.15536 10.2987V5.84071H19.2311V7.25664H19.9233ZM6.92232 11.5044C6.54015 11.5044 6.18322 11.5782 5.85152 11.7257C5.51983 11.8732 5.22419 12.076 4.9646 12.3341C4.70501 12.5922 4.50672 12.8909 4.36971 13.2301C4.23271 13.5693 4.1606 13.9381 4.15339 14.3363H8.15536V11.8142C7.96788 11.7183 7.77319 11.6445 7.57129 11.5929C7.36939 11.5413 7.15306 11.5118 6.92232 11.5044ZM3.46116 17.1681H8.23107C8.1806 16.9543 8.15536 16.7183 8.15536 16.4602V15.7522H1.50344C1.57555 15.9587 1.6765 16.1468 1.80629 16.3164C1.93609 16.486 2.08391 16.6372 2.24975 16.7699C2.4156 16.9027 2.60308 16.9985 2.81219 17.0575C3.0213 17.1165 3.23763 17.1534 3.46116 17.1681ZM8.46903 17.9093V17.9204L8.47984 17.9425V17.9314L8.46903 17.9093ZM17.8466 16.4602V7.25664H9.53982V16.4602C9.53982 16.7552 9.5939 17.0317 9.70207 17.2898C9.81023 17.5479 9.95805 17.7729 10.1455 17.9646C10.333 18.1563 10.5529 18.3075 10.8053 18.4181C11.0577 18.5288 11.3281 18.5841 11.6165 18.5841H15.7699C16.0583 18.5841 16.3287 18.5288 16.5811 18.4181C16.8335 18.3075 17.0534 18.1563 17.2409 17.9646C17.4284 17.7729 17.5762 17.5479 17.6844 17.2898C17.7925 17.0317 17.8466 16.7552 17.8466 16.4602ZM20.6155 13.6283V9.38053C20.6155 9.18879 20.547 9.02286 20.41 8.88274C20.273 8.74263 20.1108 8.67257 19.9233 8.67257H19.2311V14.3363H19.9233C20.1108 14.3363 20.273 14.2662 20.41 14.1261C20.547 13.986 20.6155 13.8201 20.6155 13.6283Z" fill="#333333"/>
</svg>
