<svg width="12" height="14" viewBox="0 0 12 14" fill="none" xmlns="http://www.w3.org/2000/svg">
<path d="M4.00033 13.6663V4.84968C2.98922 4.58301 2.18077 4.02456 1.57499 3.17434C0.969215 2.32412 0.666548 1.37701 0.666993 0.333009H2.00033C2.00033 1.25523 2.29766 2.04145 2.89233 2.69168C3.48699 3.3419 4.24522 3.66679 5.16699 3.66634H6.83366C7.16699 3.66634 7.4781 3.72745 7.76699 3.84968C8.05588 3.9719 8.31699 4.14968 8.55033 4.38301L11.567 7.39968L10.6337 8.33301L8.00033 5.69968V13.6663H6.66699V9.66634H5.33366V13.6663H4.00033ZM6.00033 2.99968C5.63366 2.99968 5.31966 2.86901 5.05833 2.60768C4.79699 2.34634 4.66655 2.03256 4.66699 1.66634C4.66699 1.29968 4.79766 0.985676 5.05899 0.724342C5.32033 0.463009 5.6341 0.332564 6.00033 0.333009C6.36699 0.333009 6.68099 0.463676 6.94233 0.725009C7.20366 0.986342 7.3341 1.30012 7.33366 1.66634C7.33366 2.03301 7.20299 2.34701 6.94166 2.60834C6.68033 2.86968 6.36655 3.00012 6.00033 2.99968Z" fill="#333333"/>
</svg>
