<svg width="17" height="19" viewBox="0 0 17 19" fill="none" xmlns="http://www.w3.org/2000/svg">
<path d="M10.5 0.625C10.5 0.45924 10.5658 0.300269 10.6831 0.183058C10.8003 0.065848 10.9592 0 11.125 0L16.125 0C16.2908 0 16.4497 0.065848 16.5669 0.183058C16.6842 0.300269 16.75 0.45924 16.75 0.625V6.875C16.75 7.04076 16.6842 7.19973 16.5669 7.31694C16.4497 7.43415 16.2908 7.5 16.125 7.5H14.25V18.125C14.25 18.2908 14.1842 18.4497 14.0669 18.5669C13.9497 18.6842 13.7908 18.75 13.625 18.75C13.4592 18.75 13.3003 18.6842 13.1831 18.5669C13.0658 18.4497 13 18.2908 13 18.125V7.5H11.125C10.9592 7.5 10.8003 7.43415 10.6831 7.31694C10.5658 7.19973 10.5 7.04076 10.5 6.875V0.625ZM4.64875 2.5H9.25V3.75H4.64875C4.34489 3.74993 4.05141 3.86055 3.82319 4.06116C3.59498 4.26177 3.44764 4.53864 3.40875 4.84L3.065 7.5H9.35625C9.48555 7.86572 9.7251 8.18234 10.0419 8.40621C10.3587 8.63009 10.7371 8.7502 11.125 8.75H2.375C2.20924 8.75 2.05027 8.81585 1.93306 8.93306C1.81585 9.05027 1.75 9.20924 1.75 9.375V13.125C1.75 13.2908 1.81585 13.4497 1.93306 13.5669C2.05027 13.6842 2.20924 13.75 2.375 13.75H11.75V15H4.25V16.5625C4.25 16.8111 4.15123 17.0496 3.97541 17.2254C3.7996 17.4012 3.56114 17.5 3.3125 17.5C3.06386 17.5 2.8254 17.4012 2.64959 17.2254C2.47377 17.0496 2.375 16.8111 2.375 16.5625V15C1.87772 15 1.40081 14.8025 1.04917 14.4508C0.697544 14.0992 0.5 13.6223 0.5 13.125V9.375C0.499942 8.97955 0.624916 8.5942 0.857056 8.27405C1.0892 7.95391 1.41661 7.71535 1.7925 7.5925L1.805 7.5H1.125C0.95924 7.5 0.800269 7.43415 0.683058 7.31694C0.565848 7.19973 0.5 7.04076 0.5 6.875C0.5 6.70924 0.565848 6.55027 0.683058 6.43306C0.800269 6.31585 0.95924 6.25 1.125 6.25H1.96625L2.16875 4.68C2.24656 4.07707 2.54141 3.52315 2.99811 3.1219C3.45481 2.72065 4.04207 2.49956 4.65 2.5H4.64875ZM11.4362 10.3138C11.5462 10.3138 11.6512 10.3325 11.75 10.3675V12.1325C11.6087 12.1831 11.4573 12.1989 11.3086 12.1786C11.16 12.1583 11.0183 12.1025 10.8957 12.016C10.7731 11.9294 10.6732 11.8146 10.6043 11.6813C10.5354 11.548 10.4997 11.4001 10.5 11.25C10.5 10.7325 10.9187 10.3138 11.4362 10.3138ZM5.5 11.25C5.5 11.373 5.47578 11.4947 5.42873 11.6083C5.38168 11.7219 5.31272 11.8251 5.22578 11.912C5.13884 11.999 5.03563 12.0679 4.92204 12.115C4.80845 12.162 4.6867 12.1862 4.56375 12.1862C4.4408 12.1862 4.31905 12.162 4.20546 12.115C4.09187 12.0679 3.98866 11.999 3.90172 11.912C3.81478 11.8251 3.74582 11.7219 3.69877 11.6083C3.65172 11.4947 3.6275 11.373 3.6275 11.25C3.6275 11.0017 3.72614 10.7636 3.90172 10.588C4.0773 10.4124 4.31544 10.3138 4.56375 10.3138C4.81206 10.3138 5.0502 10.4124 5.22578 10.588C5.40136 10.7636 5.5 11.0017 5.5 11.25Z" fill="#333333"/>
</svg>
