<svg width="18" height="17" viewBox="0 0 18 17" fill="none" xmlns="http://www.w3.org/2000/svg">
<path d="M2.75033 8.10449C2.16699 8.10449 1.67394 7.9031 1.27116 7.50033C0.868381 7.09755 0.666992 6.60449 0.666992 6.02116C0.666992 5.43783 0.868381 4.94477 1.27116 4.54199C1.67394 4.13921 2.16699 3.93783 2.75033 3.93783C3.33366 3.93783 3.82671 4.13921 4.22949 4.54199C4.63227 4.94477 4.83366 5.43783 4.83366 6.02116C4.83366 6.60449 4.63227 7.09755 4.22949 7.50033C3.82671 7.9031 3.33366 8.10449 2.75033 8.10449ZM6.50033 4.77116C5.91699 4.77116 5.42394 4.56977 5.02116 4.16699C4.61838 3.76421 4.41699 3.27116 4.41699 2.68783C4.41699 2.10449 4.61838 1.61144 5.02116 1.20866C5.42394 0.805881 5.91699 0.604492 6.50033 0.604492C7.08366 0.604492 7.57671 0.805881 7.97949 1.20866C8.38227 1.61144 8.58366 2.10449 8.58366 2.68783C8.58366 3.27116 8.38227 3.76421 7.97949 4.16699C7.57671 4.56977 7.08366 4.77116 6.50033 4.77116ZM11.5003 4.77116C10.917 4.77116 10.4239 4.56977 10.0212 4.16699C9.61838 3.76421 9.41699 3.27116 9.41699 2.68783C9.41699 2.10449 9.61838 1.61144 10.0212 1.20866C10.4239 0.805881 10.917 0.604492 11.5003 0.604492C12.0837 0.604492 12.5767 0.805881 12.9795 1.20866C13.3823 1.61144 13.5837 2.10449 13.5837 2.68783C13.5837 3.27116 13.3823 3.76421 12.9795 4.16699C12.5767 4.56977 12.0837 4.77116 11.5003 4.77116ZM15.2503 8.10449C14.667 8.10449 14.1739 7.9031 13.7712 7.50033C13.3684 7.09755 13.167 6.60449 13.167 6.02116C13.167 5.43783 13.3684 4.94477 13.7712 4.54199C14.1739 4.13921 14.667 3.93783 15.2503 3.93783C15.8337 3.93783 16.3267 4.13921 16.7295 4.54199C17.1323 4.94477 17.3337 5.43783 17.3337 6.02116C17.3337 6.60449 17.1323 7.09755 16.7295 7.50033C16.3267 7.9031 15.8337 8.10449 15.2503 8.10449ZM4.54199 16.4378C3.91699 16.4378 3.39255 16.1981 2.96866 15.7187C2.54477 15.2392 2.3331 14.6737 2.33366 14.022C2.33366 13.2998 2.58033 12.6678 3.07366 12.1262C3.56699 11.5845 4.05644 11.0498 4.54199 10.522C4.94477 10.0914 5.29199 9.62283 5.58366 9.11616C5.87533 8.60949 6.22255 8.13366 6.62533 7.68866C6.93088 7.32755 7.28505 7.02894 7.68783 6.79283C8.0906 6.55671 8.5281 6.43838 9.00033 6.43783C9.47255 6.43783 9.91005 6.54894 10.3128 6.77116C10.7156 6.99338 11.0698 7.28505 11.3753 7.64616C11.7642 8.0906 12.1081 8.56977 12.407 9.08366C12.7059 9.59755 13.0564 10.0767 13.4587 10.5212C13.9448 11.0489 14.4342 11.5837 14.927 12.1253C15.4198 12.667 15.6664 13.2989 15.667 14.0212C15.667 14.6739 15.455 15.24 15.0312 15.7195C14.6073 16.1989 14.0831 16.4384 13.4587 16.4378C12.7087 16.4378 11.9656 16.3753 11.2295 16.2503C10.4934 16.1253 9.75033 16.0628 9.00033 16.0628C8.25033 16.0628 7.50727 16.1253 6.77116 16.2503C6.03505 16.3753 5.29199 16.4378 4.54199 16.4378Z" fill="#333333"/>
</svg>
