<svg width="20" height="15" viewBox="0 0 20 15" fill="none" xmlns="http://www.w3.org/2000/svg">
<path d="M5.29167 9.79134L3.54167 7.99967C4.36111 7.18023 5.32306 6.53106 6.4275 6.05217C7.53194 5.57329 8.72278 5.33356 10 5.33301C11.2778 5.33301 12.4689 5.57606 13.5733 6.06217C14.6778 6.54829 15.6394 7.20801 16.4583 8.04134L14.7083 9.79134C14.0972 9.18023 13.3889 8.70106 12.5833 8.35384C11.7778 8.00662 10.9167 7.83301 10 7.83301C9.08333 7.83301 8.22222 8.00662 7.41667 8.35384C6.61111 8.70106 5.90278 9.18023 5.29167 9.79134ZM1.75 6.24968L0 4.49967C1.27778 3.19412 2.77083 2.17329 4.47917 1.43717C6.1875 0.701063 8.02778 0.333008 10 0.333008C11.9722 0.333008 13.8125 0.701063 15.5208 1.43717C17.2292 2.17329 18.7222 3.19412 20 4.49967L18.25 6.24968C17.1806 5.18023 15.9408 4.34329 14.5308 3.73884C13.1208 3.1344 11.6106 2.83245 10 2.83301C8.38889 2.83301 6.87833 3.13523 5.46833 3.73967C4.05833 4.34412 2.81889 5.18079 1.75 6.24968ZM10 14.4997L12.9375 11.5413C12.5625 11.1663 12.125 10.8711 11.625 10.6555C11.125 10.44 10.5833 10.3325 10 10.333C9.41667 10.333 8.875 10.4408 8.375 10.6563C7.875 10.8719 7.4375 11.1669 7.0625 11.5413L10 14.4997Z" fill="#333333"/>
</svg>
